<?xml version="1.0" encoding="UTF-8"?>
<!DOCTYPE svg PUBLIC "-//W3C//DTD SVG 1.1//EN" "http://www.w3.org/Graphics/SVG/1.1/DTD/svg11.dtd">
<!-- Creator: CorelDRAW X7 -->
<svg xmlns="http://www.w3.org/2000/svg" xml:space="preserve" width="1400px" height="1400px" version="1.1" style="shape-rendering:geometricPrecision; text-rendering:geometricPrecision; image-rendering:optimizeQuality; fill-rule:evenodd; clip-rule:evenodd"
viewBox="0 0 1400 1400"
 xmlns:xlink="http://www.w3.org/1999/xlink">
 <defs>
  <style type="text/css">
   <![CDATA[
    .fil0 {fill:#B9B9B9}
   ]]>
  </style>
 </defs>
 <g id="Capa_x0020_1">
  <metadata id="CorelCorpID_0Corel-Layer"/>
  <path class="fil0" d="M745 994l-34 0c-2,-6 -5,-12 -7,-17l35 -35c8,-9 8,-23 0,-32l-68 -68c-9,-8 -24,-8 -32,0l-35 35c-5,-3 -11,-5 -17,-7l0 -35c0,-12 -10,-22 -22,-22l-91 0c-12,0 -22,10 -22,22l0 35c-6,2 -12,4 -17,7l-35 -35c-9,-9 -23,-9 -32,0l-68 68c-4,4 -6,10 -6,16 0,6 2,12 6,16l35 34c-3,6 -5,12 -7,18l-34 0c-13,0 -23,10 -23,22l0 90c0,13 10,23 23,23l34 0c2,6 4,11 7,17l-35 35c-9,9 -9,23 0,32l68 67c8,9 23,9 32,0l35 -34c5,2 11,5 17,7l0 34c0,13 10,23 22,23l91 0c12,0 22,-10 22,-23l0 -34c6,-2 12,-5 17,-7l35 34c9,9 23,9 32,0l68 -67c4,-4 6,-10 6,-16 0,-6 -2,-12 -6,-16l-35 -35c2,-5 5,-11 7,-17l34 0c13,0 23,-10 23,-23l0 -90c0,-12 -10,-22 -23,-22zm-22 90l-29 0c-10,0 -19,7 -22,17 -3,13 -9,26 -15,38 -5,9 -4,20 3,27l31 31 -36 36 -30 -31c-8,-7 -19,-8 -28,-3 -11,6 -24,12 -38,15 -10,3 -17,12 -17,22l0 29 -45 0 0 -29c0,-10 -7,-19 -17,-22 -13,-3 -26,-9 -39,-15 -8,-6 -20,-4 -27,3l-30 31 -36 -36 30 -31c8,-7 9,-18 4,-27 -7,-12 -12,-25 -16,-38 -2,-10 -11,-17 -21,-17l-29 0 0 -45 29 0c10,0 19,-7 21,-17 4,-14 9,-27 16,-39 5,-9 4,-20 -4,-27l-30 -30 36 -36 30 30c7,7 18,9 27,4 12,-7 25,-12 39,-16 10,-2 17,-11 17,-21l0 -29 45 0 0 29c0,10 7,19 17,21 13,4 26,9 38,16 9,5 20,4 27,-4l31 -30 36 36 -31 30c-7,7 -8,19 -3,27 7,13 12,25 15,39 3,10 12,17 22,17l29 0 0 45zm0 0z"/>
  <path class="fil0" d="M519 948c-62,0 -113,51 -113,113 0,63 51,113 113,113 63,0 113,-50 113,-113 0,-62 -50,-113 -113,-113zm0 181c-37,0 -67,-30 -67,-68 0,-37 30,-67 67,-67 38,0 68,30 68,67 0,38 -30,68 -68,68zm0 0z"/>
  <path class="fil0" d="M1393 187l-180 -180c-4,-4 -10,-7 -16,-7l-632 0c-13,0 -23,10 -23,23l0 293 -203 0c-50,0 -91,41 -91,90l0 136 -225 0c-13,0 -23,10 -23,23l0 812c0,13 10,23 23,23l993 0c13,0 23,-10 23,-23l0 -203 338 0c13,0 23,-10 23,-22l0 -949c0,-6 -3,-12 -7,-16l0 0zm-174 -110l104 104 -104 0 0 -104zm-925 329c0,-24 20,-45 45,-45l361 0c25,0 45,21 45,45l0 136 -45 0 0 -113c0,-12 -10,-23 -23,-23l-316 0c-12,0 -22,11 -22,23l0 113 -45 0 0 -136zm541 271l-90 0c-12,0 -22,11 -22,23l0 23 -407 0 0 -23c0,-12 -10,-23 -22,-23l-91 0c-12,0 -22,11 -22,23l0 23 -14 0 -32 -32 0 -104 768 0 0 104 -32 32 -13 0 0 -23c0,-12 -10,-23 -23,-23l0 0zm-22 46l0 90 -45 0 0 -90 45 0zm-542 0l0 90 -45 0 0 -90 45 0zm384 -181l-68 0 0 -90 68 0 0 90zm-113 0l-158 0 0 -90 158 0 0 90zm452 813l-949 0 0 -768 45 0 0 113c0,6 3,12 7,16l45 45c4,4 10,7 16,7l23 0 0 67c0,13 10,23 22,23l91 0c12,0 22,-10 22,-23l0 -67 407 0 0 67c0,13 10,23 22,23l90 0c13,0 23,-10 23,-23l0 -67 23 0c6,0 11,-3 16,-7l45 -45c4,-4 6,-10 6,-16l0 -113 46 0 0 768zm361 -226l-316 0 0 -564c0,-13 -10,-23 -23,-23l-226 0 0 -136c0,-49 -40,-90 -90,-90l-113 0 0 -271 587 0 0 158c0,13 10,23 23,23l158 0 0 903zm0 0z"/>
  <path class="fil0" d="M1129 248l0 -135c0,-13 -10,-23 -23,-23l-451 0c-13,0 -23,10 -23,23l0 135c0,13 10,23 23,23l451 0c13,0 23,-10 23,-23l0 0zm-45 -22l-407 0 0 -91 407 0 0 91zm0 0z"/>
  <path class="fil0" d="M835 316l475 0 0 45 -475 0 0 -45zm0 0z"/>
  <path class="fil0" d="M835 406l475 0 0 46 -475 0 0 -46zm0 0z"/>
  <path class="fil0" d="M1084 497l226 0 0 45 -226 0 0 -45zm0 0z"/>
  <path class="fil0" d="M1084 587l226 0 0 45 -226 0 0 -45zm0 0z"/>
  <path class="fil0" d="M1084 677l226 0 0 46 -226 0 0 -46zm0 0z"/>
  <path class="fil0" d="M1084 768l226 0 0 45 -226 0 0 -45zm0 0z"/>
  <path class="fil0" d="M1084 858l226 0 0 45 -226 0 0 -45zm0 0z"/>
  <path class="fil0" d="M1084 948l226 0 0 46 -226 0 0 -46zm0 0z"/>
  <path class="fil0" d="M1084 1039l226 0 0 45 -226 0 0 -45zm0 0z"/>
 </g>
</svg>
